<?xml version="1.0" encoding="utf-8"?>
<!-- Generator: Adobe Illustrator 27.3.1, SVG Export Plug-In . SVG Version: 6.00 Build 0)  -->
<svg version="1.1" id="Layer_1" xmlns="http://www.w3.org/2000/svg" xmlns:xlink="http://www.w3.org/1999/xlink" x="0px" y="0px"
	 viewBox="0 0 64 64" style="enable-background:new 0 0 64 64;" xml:space="preserve">
<style type="text/css">
	.st0{fill:#CDCDCD;}
	.st1{fill:#8B53E5;}
	.st2{fill:#C555E0;}
	.st3{fill:#545BE2;}
</style>
<g>
	<g>
		<g>
			<path class="st0" d="M1.6,12.9c0-1.7,1.4-3.1,3-3.1h54.9c1.7,0,3,1.4,3,3.1s-1.4,3.1-3,3.1H4.6C3,16,1.6,14.6,1.6,12.9z"/>
		</g>
	</g>
</g>
<g>
	<g>
		<g>
			<path class="st0" d="M1.7,49.8c0-1.7,1.4-3.1,3-3.1h54.8c1.7,0,3,1.4,3,3.1s-1.4,3.1-3,3.1H4.8C3.1,52.9,1.7,51.5,1.7,49.8z"/>
		</g>
	</g>
</g>
<g>
	<g>
		<g>
			<path class="st0" d="M1,31.4c0-1.7,1.4-3.1,3-3.1h55.5c1.7,0,3,1.4,3,3.1c0,1.7-1.4,3.1-3,3.1H4C2.4,34.4,1,33.1,1,31.4z"/>
		</g>
	</g>
</g>
<g>
	<g>
		<path class="st1" d="M8.6,31.4c0-5.5,4.4-10,9.9-10s9.9,4.5,9.9,10s-4.4,10-9.9,10S8.6,36.9,8.6,31.4z M23.8,31.4
			c0-2.9-2.4-5.4-5.3-5.4s-5.3,2.5-5.3,5.4c0,2.9,2.4,5.4,5.3,5.4S23.8,34.3,23.8,31.4z"/>
	</g>
</g>
<g>
	<g>
		<path class="st2" d="M29.9,49.8c0-5.5,4.4-10,9.9-10s9.9,4.5,9.9,10s-4.4,10-9.9,10S29.9,55.4,29.9,49.8z M45.1,49.8
			c0-2.9-2.4-5.4-5.3-5.4c-2.9,0-5.3,2.5-5.3,5.4s2.4,5.4,5.3,5.4C42.7,55.2,45.1,52.7,45.1,49.8z"/>
	</g>
</g>
<g>
	<g>
		<path class="st3" d="M36,12.9c0-5.5,4.4-10,9.9-10s9.9,4.5,9.9,10s-4.4,10-9.9,10S36,18.4,36,12.9z M51.2,12.9
			c0-2.9-2.4-5.4-5.3-5.4c-2.9,0-5.3,2.5-5.3,5.4s2.4,5.4,5.3,5.4C48.8,18.3,51.2,15.8,51.2,12.9z"/>
	</g>
</g>
</svg>
