<svg width="138" height="39" viewBox="0 0 138 39" fill="none" xmlns="http://www.w3.org/2000/svg">
<path d="M32.6777 32.6777C27.6009 37.7546 19.3698 37.7546 14.293 32.6777C9.21615 27.6009 9.21615 19.3698 14.293 14.293C19.3698 9.21615 27.6009 9.21615 32.6777 14.293C37.7546 19.3698 37.7546 27.6009 32.6777 32.6777Z" stroke="url(#paint0_linear_2198_21859)" stroke-width="4"/>
<path d="M24.1924 24.1924C19.1156 29.2692 10.8844 29.2692 5.80761 24.1924C0.730796 19.1156 0.730796 10.8844 5.80761 5.80761C10.8844 0.730796 19.1156 0.730796 24.1924 5.80761C29.2692 10.8844 29.2692 19.1156 24.1924 24.1924Z" stroke="url(#paint1_linear_2198_21859)" stroke-width="4"/>
<path d="M24.1925 24.1922C20.6481 27.7366 15.5633 28.809 11.0855 27.3997C9.67616 22.9218 10.7486 17.8371 14.293 14.2927C17.8373 10.7484 22.9221 9.67592 27.4 11.0852C28.8093 15.5631 27.7368 20.6478 24.1925 24.1922Z" stroke="url(#paint2_linear_2198_21859)" stroke-width="4"/>
<path d="M83.5897 20.6081C83.7331 21.5164 83.7809 22.5322 83.7331 23.6556C83.7092 23.9424 83.5538 24.0859 83.267 24.0859H72.1883C72.0449 24.0859 71.9971 24.1456 72.0449 24.2651C72.1166 24.7432 72.248 25.2212 72.4393 25.6993C73.0607 27.0378 74.3275 27.707 76.2397 27.707C77.7695 27.6831 78.9765 27.0617 79.8609 25.8427C79.9565 25.6993 80.0641 25.6276 80.1836 25.6276C80.2553 25.6276 80.3389 25.6754 80.4346 25.771L83.016 28.3166C83.1355 28.4361 83.1953 28.5436 83.1953 28.6392C83.1953 28.687 83.1475 28.7826 83.0518 28.9261C82.2631 29.906 81.2472 30.6709 80.0043 31.2207C78.7614 31.7465 77.399 32.0094 75.917 32.0094C73.8614 32.0094 72.1166 31.5434 70.6824 30.6112C69.2722 29.679 68.2564 28.3763 67.6349 26.7031C67.133 25.508 66.882 23.9424 66.882 22.0064C66.882 20.6917 67.0613 19.5325 67.4198 18.5286C67.9695 16.8315 68.9256 15.4811 70.2881 14.4772C71.6744 13.4733 73.3117 12.9713 75.2 12.9713C77.5902 12.9713 79.5024 13.6645 80.9365 15.0508C82.3945 16.4371 83.2789 18.2896 83.5897 20.6081ZM75.2358 17.3454C73.73 17.3454 72.738 18.0505 72.26 19.4608C72.1644 19.7715 72.0807 20.1539 72.009 20.6081C72.009 20.7276 72.0688 20.7873 72.1883 20.7873H78.3909C78.5343 20.7873 78.5821 20.7276 78.5343 20.6081C78.4148 19.9149 78.3551 19.5803 78.3551 19.6042C78.1399 18.8871 77.7575 18.3374 77.2078 17.9549C76.6819 17.5486 76.0246 17.3454 75.2358 17.3454Z" fill="#2D2C34"/>
<path d="M101.728 17.9908C102.182 19.2337 102.409 20.7156 102.409 22.4366C102.409 24.0859 102.206 25.5319 101.8 26.7749C101.25 28.4002 100.365 29.679 99.1464 30.6112C97.9513 31.5434 96.5291 32.0094 94.8798 32.0094C93.135 32.0094 91.7606 31.3521 90.7567 30.0375C90.7089 29.9897 90.6611 29.9778 90.6133 30.0017C90.5655 30.0017 90.5416 30.0375 90.5416 30.1092V31.2924C90.5416 31.4119 90.4938 31.5194 90.3981 31.6151C90.3264 31.6868 90.2308 31.7226 90.1113 31.7226H85.9165C85.797 31.7226 85.6894 31.6868 85.5938 31.6151C85.5221 31.5194 85.4862 31.4119 85.4862 31.2924V7.05552C85.4862 6.93601 85.5221 6.8404 85.5938 6.76869C85.6894 6.67308 85.797 6.62527 85.9165 6.62527H90.1113C90.2308 6.62527 90.3264 6.67308 90.3981 6.76869C90.4938 6.8404 90.5416 6.93601 90.5416 7.05552V14.7281C90.5416 14.7998 90.5655 14.8476 90.6133 14.8715C90.6611 14.8954 90.7089 14.8715 90.7567 14.7998C91.6889 13.6047 93.0154 13.0072 94.7364 13.0072C96.4813 13.0072 97.9393 13.4613 99.1105 14.3696C100.306 15.254 101.178 16.461 101.728 17.9908ZM96.4215 26.1295C96.9235 25.2212 97.1744 24.0261 97.1744 22.5442C97.1744 20.8949 96.8876 19.6281 96.3139 18.7437C95.7403 17.8115 94.8918 17.3454 93.7684 17.3454C92.7167 17.3454 91.9159 17.8115 91.3662 18.7437C90.8403 19.652 90.5774 20.9069 90.5774 22.5083C90.5774 24.1098 90.8164 25.3168 91.2945 26.1295C91.8681 27.1573 92.7047 27.6712 93.8042 27.6712C94.9754 27.6712 95.8479 27.1573 96.4215 26.1295Z" fill="#2D2C34"/>
<path d="M115.044 13.7242C115.044 13.6047 115.08 13.5091 115.152 13.4374C115.247 13.3418 115.355 13.294 115.474 13.294H119.669C119.789 13.294 119.884 13.3418 119.956 13.4374C120.051 13.5091 120.099 13.6047 120.099 13.7242V31.2924C120.099 31.4119 120.051 31.5194 119.956 31.6151C119.884 31.6868 119.789 31.7226 119.669 31.7226H115.474C115.355 31.7226 115.247 31.6868 115.152 31.6151C115.08 31.5194 115.044 31.4119 115.044 31.2924V30.0734C115.044 30.0017 115.02 29.9658 114.972 29.9658C114.924 29.9419 114.877 29.9658 114.829 30.0375C113.873 31.3282 112.391 31.9736 110.383 31.9736C108.566 31.9736 107.073 31.4238 105.901 30.3243C104.73 29.2248 104.145 27.6831 104.145 25.6993V13.7242C104.145 13.6047 104.18 13.5091 104.252 13.4374C104.348 13.3418 104.455 13.294 104.575 13.294H108.734C108.853 13.294 108.949 13.3418 109.021 13.4374C109.116 13.5091 109.164 13.6047 109.164 13.7242V24.4444C109.164 25.4005 109.415 26.1773 109.917 26.7749C110.443 27.3724 111.16 27.6712 112.068 27.6712C112.881 27.6712 113.55 27.4322 114.076 26.9541C114.602 26.4522 114.924 25.8068 115.044 25.018V13.7242Z" fill="#2D2C34"/>
<path d="M129.741 31.9736C128.14 31.9736 126.741 31.7465 125.546 31.2924C124.351 30.8382 123.419 30.2048 122.75 29.3922C122.104 28.5795 121.782 27.6592 121.782 26.6314V26.2729C121.782 26.1534 121.817 26.0578 121.889 25.9861C121.985 25.8905 122.092 25.8427 122.212 25.8427H126.192C126.311 25.8427 126.407 25.8905 126.478 25.9861C126.574 26.0578 126.622 26.1534 126.622 26.2729V26.3088C126.622 26.8346 126.909 27.2888 127.482 27.6712C128.08 28.0297 128.821 28.209 129.705 28.209C130.518 28.209 131.175 28.0536 131.677 27.7429C132.179 27.4083 132.43 27.0019 132.43 26.5239C132.43 26.0936 132.215 25.771 131.785 25.5558C131.354 25.3407 130.649 25.1137 129.669 24.8746C128.546 24.5878 127.662 24.3129 127.016 24.05C125.486 23.5242 124.267 22.8788 123.359 22.1139C122.451 21.349 121.997 20.2495 121.997 18.8154C121.997 17.0466 122.678 15.6484 124.04 14.6206C125.427 13.5689 127.255 13.043 129.526 13.043C131.056 13.043 132.394 13.294 133.541 13.7959C134.689 14.274 135.573 14.9552 136.195 15.8396C136.84 16.724 137.163 17.7279 137.163 18.8513C137.163 18.9708 137.115 19.0783 137.019 19.1739C136.948 19.2457 136.852 19.2815 136.732 19.2815H132.896C132.777 19.2815 132.669 19.2457 132.573 19.1739C132.502 19.0783 132.466 18.9708 132.466 18.8513C132.466 18.3254 132.191 17.8832 131.641 17.5247C131.115 17.1662 130.41 16.9869 129.526 16.9869C128.737 16.9869 128.092 17.1303 127.59 17.4171C127.088 17.704 126.837 18.0983 126.837 18.6003C126.837 19.0783 127.076 19.4369 127.554 19.6759C128.056 19.9149 128.881 20.1659 130.028 20.4288C130.291 20.5005 130.59 20.5842 130.924 20.6798C131.259 20.7515 131.617 20.8471 132 20.9666C133.697 21.4686 135.035 22.1139 136.015 22.9027C136.995 23.6915 137.485 24.8388 137.485 26.3446C137.485 28.1134 136.78 29.4997 135.37 30.5036C133.984 31.4836 132.107 31.9736 129.741 31.9736Z" fill="#2D2C34"/>
<path d="M58.8643 6.47589H47.7841C47.6191 6.47589 47.4854 6.60966 47.4854 6.77467V10.6588C47.4854 10.8238 47.6191 10.9576 47.7841 10.9576H58.8643C60.7479 10.9576 62.2749 12.4845 62.2749 14.3682C62.2749 16.2518 60.7479 17.7788 58.8643 17.7788H48.0963C47.83 17.7788 47.6967 18.1009 47.8852 18.289L61.0811 31.4605C61.2493 31.6283 61.4772 31.7226 61.7148 31.7225L66.9629 31.72C67.2292 31.7199 67.3623 31.3979 67.1739 31.2098L58.6725 22.7241C58.5012 22.5531 58.6223 22.2605 58.8643 22.2605C63.223 22.2605 66.7565 18.727 66.7565 14.3682C66.7565 10.0094 63.223 6.47589 58.8643 6.47589Z" fill="#2D2C34"/>
<defs>
<linearGradient id="paint0_linear_2198_21859" x1="8.48535" y1="8.48535" x2="43.7795" y2="17.3089" gradientUnits="userSpaceOnUse">
<stop stop-color="#5084E9"/>
<stop offset="1" stop-color="#6F50E9"/>
</linearGradient>
<linearGradient id="paint1_linear_2198_21859" x1="0" y1="0" x2="35.2941" y2="8.82353" gradientUnits="userSpaceOnUse">
<stop stop-color="#E95062"/>
<stop offset="1" stop-color="#E950D0"/>
</linearGradient>
<linearGradient id="paint2_linear_2198_21859" x1="8.48535" y1="8.48511" x2="33.7968" y2="14.813" gradientUnits="userSpaceOnUse">
<stop stop-color="#5084E9"/>
<stop offset="1" stop-color="#E95062"/>
</linearGradient>
</defs>
</svg>
